<svg aria-hidden="true" focusable="false" data-prefix="fal" data-icon="angle-double-right" class="svg-inline--fa fa-angle-double-right fa-w-10" role="img" xmlns="http://www.w3.org/2000/svg" width="10px" height="16px" viewBox="0 0 320 512"><path fill="#FF4" d="M166.9 264.5l-117.8 116c-4.7 4.7-12.3 4.7-17 0l-7.1-7.1c-4.7-4.7-4.7-12.3 0-17L127.3 256 25.1 155.6c-4.7-4.7-4.7-12.3 0-17l7.1-7.1c4.7-4.7 12.3-4.7 17 0l117.8 116c4.6 4.7 4.6 12.3-.1 17zm128-17l-117.8-116c-4.7-4.7-12.3-4.7-17 0l-7.1 7.1c-4.7 4.7-4.7 12.3 0 17L255.3 256 153.1 356.4c-4.7 4.7-4.7 12.3 0 17l7.1 7.1c4.7 4.7 12.3 4.7 17 0l117.8-116c4.6-4.7 4.6-12.3-.1-17z"></path></svg>